REM DIRINDEX 1\2,1\3
REM DIRNAME cjc116,folder01,folder02
TITLE ""
FILE "Disc2Track11.mp3" MP3
  TRACK 01 AUDIO
    TITLE "0:"
    INDEX 01 00:00:00
  TRACK 02 AUDIO
    TITLE "3:cjc116_3079"
    INDEX 01 00:00:05
  TRACK 03 AUDIO
    TITLE "0:"
    INDEX 01 00:09:36
  TRACK 04 AUDIO
    TITLE "3:cjc116_3080"
    INDEX 01 00:10:18
  TRACK 05 AUDIO
    TITLE "0:"
    INDEX 01 00:12:18
  TRACK 06 AUDIO
    TITLE "2:cjc116_3081"
    INDEX 01 00:12:69
  TRACK 07 AUDIO
    TITLE "0:"
    INDEX 01 00:14:15
  TRACK 08 AUDIO
    TITLE "2:cjc116_3082"
    INDEX 01 00:14:29
  TRACK 09 AUDIO
    TITLE "0:"
    INDEX 01 00:17:47
  TRACK 10 AUDIO
    TITLE "2:cjc116_3083"
    INDEX 01 00:18:11
  TRACK 11 AUDIO
    TITLE "0:"
    INDEX 01 00:19:11
  TRACK 12 AUDIO
    TITLE "2:cjc116_3084"
    INDEX 01 00:19:30
  TRACK 13 AUDIO
    TITLE "0:"
    INDEX 01 00:23:36
  TRACK 14 AUDIO
    TITLE "2:cjc116_3085"
    INDEX 01 00:23:73
  TRACK 15 AUDIO
    TITLE "0:"
    INDEX 01 00:24:67
  TRACK 16 AUDIO
    TITLE "2:cjc116_3086"
    INDEX 01 00:25:21
  TRACK 17 AUDIO
    TITLE "0:"
    INDEX 01 00:29:72
  TRACK 18 AUDIO
    TITLE "2:cjc116_3087"
    INDEX 01 00:30:34
  TRACK 19 AUDIO
    TITLE "0:"
    INDEX 01 00:31:55
  TRACK 20 AUDIO
    TITLE "2:cjc116_3088"
    INDEX 01 00:31:71
  TRACK 21 AUDIO
    TITLE "0:"
    INDEX 01 00:35:51
  TRACK 22 AUDIO
    TITLE "2:cjc116_3089"
    INDEX 01 00:36:21
  TRACK 23 AUDIO
    TITLE "0:"
    INDEX 01 00:37:36
  TRACK 24 AUDIO
    TITLE "2:cjc116_3090"
    INDEX 01 00:37:50
  TRACK 25 AUDIO
    TITLE "0:"
    INDEX 01 00:41:12
  TRACK 26 AUDIO
    TITLE "2:cjc116_3091"
    INDEX 01 00:41:59
  TRACK 27 AUDIO
    TITLE "0:"
    INDEX 01 00:42:59
  TRACK 28 AUDIO
    TITLE "2:cjc116_3092"
    INDEX 01 00:43:03
  TRACK 29 AUDIO
    TITLE "0:"
    INDEX 01 00:47:70
  TRACK 30 AUDIO
    TITLE "2:cjc116_3093"
    INDEX 01 00:48:40
  TRACK 31 AUDIO
    TITLE "0:"
    INDEX 01 00:49:43
  TRACK 32 AUDIO
    TITLE "2:cjc116_3094"
    INDEX 01 00:49:63
  TRACK 33 AUDIO
    TITLE "0:"
    INDEX 01 00:54:01
  TRACK 34 AUDIO
    TITLE "2:cjc116_3095"
    INDEX 01 00:54:44
  TRACK 35 AUDIO
    TITLE "0:"
    INDEX 01 00:55:46
  TRACK 36 AUDIO
    TITLE "2:cjc116_3096"
    INDEX 01 00:55:69
  TRACK 37 AUDIO
    TITLE "0:"
    INDEX 01 01:00:45
  TRACK 38 AUDIO
    TITLE "2:cjc116_3097"
    INDEX 01 01:01:17
  TRACK 39 AUDIO
    TITLE "0:"
    INDEX 01 01:02:16
  TRACK 40 AUDIO
    TITLE "2:cjc116_3098"
    INDEX 01 01:02:50
  TRACK 41 AUDIO
    TITLE "0:"
    INDEX 01 01:06:30
  TRACK 42 AUDIO
    TITLE "2:cjc116_3099"
    INDEX 01 01:07:06
  TRACK 43 AUDIO
    TITLE "0:"
    INDEX 01 01:08:21
  TRACK 44 AUDIO
    TITLE "2:cjc116_3100"
    INDEX 01 01:08:40
  TRACK 45 AUDIO
    TITLE "0:"
    INDEX 01 01:12:26
  TRACK 46 AUDIO
    TITLE "2:cjc116_3101"
    INDEX 01 01:13:02
  TRACK 47 AUDIO
    TITLE "0:"
    INDEX 01 01:14:33
  TRACK 48 AUDIO
    TITLE "2:cjc116_3102"
    INDEX 01 01:14:49
  TRACK 49 AUDIO
    TITLE "0:"
    INDEX 01 01:18:70
  TRACK 50 AUDIO
    TITLE "2:cjc116_3103"
    INDEX 01 01:19:44
  TRACK 51 AUDIO
    TITLE "0:"
    INDEX 01 01:20:53
  TRACK 52 AUDIO
    TITLE "2:cjc116_3104"
    INDEX 01 01:21:02
  TRACK 53 AUDIO
    TITLE "0:"
    INDEX 01 01:26:15
  TRACK 54 AUDIO
    TITLE "2:cjc116_3105"
    INDEX 01 01:26:58
  TRACK 55 AUDIO
    TITLE "0:"
    INDEX 01 01:27:67
  TRACK 56 AUDIO
    TITLE "2:cjc116_3106"
    INDEX 01 01:28:02
  TRACK 57 AUDIO
    TITLE "0:"
    INDEX 01 01:31:39
  TRACK 58 AUDIO
    TITLE "2:cjc116_3107"
    INDEX 01 01:32:04
  TRACK 59 AUDIO
    TITLE "0:"
    INDEX 01 01:33:09
  TRACK 60 AUDIO
    TITLE "2:cjc116_3108"
    INDEX 01 01:33:21
  TRACK 61 AUDIO
    TITLE "0:"
    INDEX 01 01:38:51
  TRACK 62 AUDIO
    TITLE "2:cjc116_3109"
    INDEX 01 01:39:29
  TRACK 63 AUDIO
    TITLE "0:"
    INDEX 01 01:41:03
  TRACK 64 AUDIO
    TITLE "2:cjc116_3110"
    INDEX 01 01:41:18
  TRACK 65 AUDIO
    TITLE "0:"
    INDEX 01 01:44:28
  TRACK 66 AUDIO
    TITLE "2:cjc116_3111"
    INDEX 01 01:44:73
  TRACK 67 AUDIO
    TITLE "0:"
    INDEX 01 01:45:73
  TRACK 68 AUDIO
    TITLE "2:cjc116_3112"
    INDEX 01 01:46:25
  TRACK 69 AUDIO
    TITLE "0:"
    INDEX 01 01:50:37
  TRACK 70 AUDIO
    TITLE "2:cjc116_3113"
    INDEX 01 01:51:05
  TRACK 71 AUDIO
    TITLE "0:"
    INDEX 01 01:52:10
  TRACK 72 AUDIO
    TITLE "2:cjc116_3114"
    INDEX 01 01:52:30
  TRACK 73 AUDIO
    TITLE "0:"
    INDEX 01 01:56:53
  TRACK 74 AUDIO
    TITLE "2:cjc116_3115"
    INDEX 01 01:57:19
  TRACK 75 AUDIO
    TITLE "0:"
    INDEX 01 01:58:13
  TRACK 76 AUDIO
    TITLE "2:cjc116_3116"
    INDEX 01 01:58:38
  TRACK 77 AUDIO
    TITLE "0:"
    INDEX 01 02:01:62
  TRACK 78 AUDIO
    TITLE "2:cjc116_3117"
    INDEX 01 02:02:34
  TRACK 79 AUDIO
    TITLE "0:"
    INDEX 01 02:03:43
  TRACK 80 AUDIO
    TITLE "2:cjc116_3118"
    INDEX 01 02:03:67
  TRACK 81 AUDIO
    TITLE "0:"
    INDEX 01 02:07:53
  TRACK 82 AUDIO
    TITLE "2:cjc116_3119"
    INDEX 01 02:08:29
  TRACK 83 AUDIO
    TITLE "0:"
    INDEX 01 02:09:48
  TRACK 84 AUDIO
    TITLE "2:cjc116_3120"
    INDEX 01 02:09:62
  TRACK 85 AUDIO
    TITLE "0:"
    INDEX 01 02:13:46
  TRACK 86 AUDIO
    TITLE "2:cjc116_3121"
    INDEX 01 02:14:10
  TRACK 87 AUDIO
    TITLE "0:"
    INDEX 01 02:15:17
  TRACK 88 AUDIO
    TITLE "2:cjc116_3122"
    INDEX 01 02:15:31
  TRACK 89 AUDIO
    TITLE "0:"
    INDEX 01 02:19:72
  TRACK 90 AUDIO
    TITLE "2:cjc116_3123"
    INDEX 01 02:20:40
  TRACK 91 AUDIO
    TITLE "0:"
    INDEX 01 02:21:57
  TRACK 92 AUDIO
    TITLE "2:cjc116_3124"
    INDEX 01 02:21:67
  TRACK 93 AUDIO
    TITLE "0:"
    INDEX 01 02:26:17
  TRACK 94 AUDIO
    TITLE "2:cjc116_3125"
    INDEX 01 02:26:62
  TRACK 95 AUDIO
    TITLE "0:"
    INDEX 01 02:28:08
  TRACK 96 AUDIO
    TITLE "2:cjc116_3126"
    INDEX 01 02:28:28
  TRACK 97 AUDIO
    TITLE "0:"
    INDEX 01 02:31:51
  TRACK 98 AUDIO
    TITLE "2:cjc116_3127"
    INDEX 01 02:32:20
  TRACK 99 AUDIO
    TITLE "0:"
    INDEX 01 02:33:31
  TRACK 100 AUDIO
    TITLE "2:cjc116_3128"
    INDEX 01 02:33:46
  TRACK 101 AUDIO
    TITLE "0:"
    INDEX 01 02:37:19
  TRACK 102 AUDIO
    TITLE "2:cjc116_3129"
    INDEX 01 02:37:72
  TRACK 103 AUDIO
    TITLE "0:"
    INDEX 01 02:39:18
  TRACK 104 AUDIO
    TITLE "2:cjc116_3130"
    INDEX 01 02:39:26
  TRACK 105 AUDIO
    TITLE "0:"
    INDEX 01 02:43:33
  TRACK 106 AUDIO
    TITLE "2:cjc116_3131"
    INDEX 01 02:43:74
  TRACK 107 AUDIO
    TITLE "0:"
    INDEX 01 02:45:03
  TRACK 108 AUDIO
    TITLE "2:cjc116_3132"
    INDEX 01 02:45:22
  TRACK 109 AUDIO
    TITLE "0:"
    INDEX 01 02:49:24
  TRACK 110 AUDIO
    TITLE "2:cjc116_3133"
    INDEX 01 02:49:67
  TRACK 111 AUDIO
    TITLE "0:"
    INDEX 01 02:50:72
  TRACK 112 AUDIO
    TITLE "2:cjc116_3134"
    INDEX 01 02:51:17
  TRACK 113 AUDIO
    TITLE "0:"
    INDEX 01 02:54:58
  TRACK 114 AUDIO
    TITLE "2:cjc116_3135"
    INDEX 01 02:55:23
  TRACK 115 AUDIO
    TITLE "0:"
    INDEX 01 02:56:20
  TRACK 116 AUDIO
    TITLE "2:cjc116_3136"
    INDEX 01 02:56:46
  TRACK 117 AUDIO
    TITLE "0:"
    INDEX 01 03:00:59
  TRACK 118 AUDIO
    TITLE "2:cjc116_3137"
    INDEX 01 03:01:35
  TRACK 119 AUDIO
    TITLE "0:"
    INDEX 01 03:02:46
  TRACK 120 AUDIO
    TITLE "2:cjc116_3138"
    INDEX 01 03:02:68
  TRACK 121 AUDIO
    TITLE "0:"
    INDEX 01 03:07:47
  TRACK 122 AUDIO
    TITLE "2:cjc116_3139"
    INDEX 01 03:08:15
  TRACK 123 AUDIO
    TITLE "0:"
    INDEX 01 03:09:19
  TRACK 124 AUDIO
    TITLE "2:cjc116_3140"
    INDEX 01 03:09:36
  TRACK 125 AUDIO
    TITLE "0:"
    INDEX 01 03:12:09
  TRACK 126 AUDIO
    TITLE "2:cjc116_3141"
    INDEX 01 03:12:50
  TRACK 127 AUDIO
    TITLE "0:"
    INDEX 01 03:13:64
  TRACK 128 AUDIO
    TITLE "2:cjc116_3142"
    INDEX 01 03:14:16
  TRACK 129 AUDIO
    TITLE "0:"
    INDEX 01 03:17:38
  TRACK 130 AUDIO
    TITLE "2:cjc116_3143"
    INDEX 01 03:18:04
  TRACK 131 AUDIO
    TITLE "0:"
    INDEX 01 03:19:17
  TRACK 132 AUDIO
    TITLE "2:cjc116_3144"
    INDEX 01 03:19:37
  TRACK 133 AUDIO
    TITLE "0:"
    INDEX 01 03:22:51
  TRACK 134 AUDIO
    TITLE "2:cjc116_3145"
    INDEX 01 03:23:13
  TRACK 135 AUDIO
    TITLE "0:"
    INDEX 01 03:24:14
  TRACK 136 AUDIO
    TITLE "2:cjc116_3146"
    INDEX 01 03:24:44
  TRACK 137 AUDIO
    TITLE "0:"
    INDEX 01 03:28:32
  TRACK 138 AUDIO
    TITLE "2:cjc116_3147"
    INDEX 01 03:28:71
  TRACK 139 AUDIO
    TITLE "0:"
    INDEX 01 03:29:70
  TRACK 140 AUDIO
    TITLE "2:cjc116_3148"
    INDEX 01 03:30:21
  TRACK 141 AUDIO
    TITLE "0:"
    INDEX 01 03:34:27
  TRACK 142 AUDIO
    TITLE "2:cjc116_3149"
    INDEX 01 03:34:68
  TRACK 143 AUDIO
    TITLE "0:"
    INDEX 01 03:36:04
  TRACK 144 AUDIO
    TITLE "2:cjc116_3150"
    INDEX 01 03:36:25
  TRACK 145 AUDIO
    TITLE "0:"
    INDEX 01 03:40:15
  TRACK 146 AUDIO
    TITLE "2:cjc116_3151"
    INDEX 01 03:40:53
  TRACK 147 AUDIO
    TITLE "0:"
    INDEX 01 03:41:62
  TRACK 148 AUDIO
    TITLE "2:cjc116_3152"
    INDEX 01 03:41:74
  TRACK 149 AUDIO
    TITLE "0:"
    INDEX 01 03:44:62
  TRACK 150 AUDIO
    TITLE "2:cjc116_3153"
    INDEX 01 03:45:22
  TRACK 151 AUDIO
    TITLE "0:"
    INDEX 01 03:46:32
  TRACK 152 AUDIO
    TITLE "2:cjc116_3154"
    INDEX 01 03:46:45
  TRACK 153 AUDIO
    TITLE "0:"
    INDEX 01 03:49:07
  TRACK 154 AUDIO
    TITLE "2:cjc116_3155"
    INDEX 01 03:49:52
  TRACK 155 AUDIO
    TITLE "0:"
    INDEX 01 03:50:55
  TRACK 156 AUDIO
    TITLE "2:cjc116_3156"
    INDEX 01 03:51:07
  TRACK 157 AUDIO
    TITLE "0:"
    INDEX 01 03:55:23
  TRACK 158 AUDIO
    TITLE "2:cjc116_3157"
    INDEX 01 03:55:74
  TRACK 159 AUDIO
    TITLE "0:"
    INDEX 01 03:56:71
  TRACK 160 AUDIO
    TITLE "2:cjc116_3158"
    INDEX 01 03:57:14
  TRACK 161 AUDIO
    TITLE "0:"
    INDEX 01 04:00:42
  TRACK 162 AUDIO
    TITLE "2:cjc116_3159"
    INDEX 01 04:01:10
  TRACK 163 AUDIO
    TITLE "0:"
    INDEX 01 04:02:13
  TRACK 164 AUDIO
    TITLE "2:cjc116_3160"
    INDEX 01 04:02:37
  TRACK 165 AUDIO
    TITLE "0:"
    INDEX 01 04:06:27
  TRACK 166 AUDIO
    TITLE "2:cjc116_3161"
    INDEX 01 04:07:08
  TRACK 167 AUDIO
    TITLE "0:"
    INDEX 01 04:08:18
  TRACK 168 AUDIO
    TITLE "2:cjc116_3162"
    INDEX 01 04:08:37
  TRACK 169 AUDIO
    TITLE "0:"
    INDEX 01 04:12:70
